<svg width="46" height="30" viewBox="0 0 46 30" fill="none" xmlns="http://www.w3.org/2000/svg">
<mask id="path-1-inside-1" fill="white">
<path fill-rule="evenodd" clip-rule="evenodd" d="M10.0763 29.3033C4.47085 29.0635 0 24.4432 0 18.7787C0 12.9607 4.71642 8.24431 10.5344 8.24431C10.7465 8.24431 10.957 8.25058 11.166 8.26294C12.7829 3.45951 17.3234 0 22.6719 0C27.3094 0 31.3394 2.60083 33.3829 6.42343C33.5521 6.41601 33.7223 6.41226 33.8933 6.41226C40.2172 6.41226 45.3438 11.5388 45.3438 17.8627C45.3438 23.8783 40.7049 28.8104 34.8093 29.277V29.3131H33.92L33.8933 29.3131L33.8666 29.3131H10.5525C10.5465 29.3131 10.5405 29.3131 10.5344 29.3131C10.5284 29.3131 10.5223 29.3131 10.5163 29.3131H10.0763V29.3033Z"/>
</mask>
<path d="M10.0763 29.3033H12.0763V27.3871L10.1618 27.3052L10.0763 29.3033ZM11.166 8.26294L11.0479 10.2594L12.5738 10.3497L13.0615 8.90098L11.166 8.26294ZM33.3829 6.42343L31.6191 7.36633L32.2127 8.47669L33.4706 8.42151L33.3829 6.42343ZM34.8093 29.277L34.6515 27.2833L32.8093 27.4291V29.277H34.8093ZM34.8093 29.3131V31.3131H36.8093V29.3131H34.8093ZM33.92 29.3131V27.3131L33.9178 27.3131L33.92 29.3131ZM33.8933 29.3131L33.891 31.3131L33.8956 31.3131L33.8933 29.3131ZM33.8666 29.3131L33.8689 27.3131H33.8666V29.3131ZM10.5525 29.3131V27.3131L10.5494 27.3131L10.5525 29.3131ZM10.5163 29.3131L10.5194 27.3131H10.5163V29.3131ZM10.0763 29.3131H8.07633V31.3131H10.0763V29.3131ZM10.1618 27.3052C5.62206 27.1109 2 23.3673 2 18.7787H-2C-2 25.5192 3.31964 31.0161 9.99083 31.3015L10.1618 27.3052ZM2 18.7787C2 14.0653 5.82098 10.2443 10.5344 10.2443V6.24431C3.61185 6.24431 -2 11.8562 -2 18.7787H2ZM10.5344 10.2443C10.707 10.2443 10.8782 10.2494 11.0479 10.2594L11.284 6.26642C11.0358 6.25175 10.7859 6.24431 10.5344 6.24431V10.2443ZM13.0615 8.90098C14.4127 4.88673 18.2078 2 22.6719 2V-2C16.439 -2 11.153 2.03229 9.27048 7.62489L13.0615 8.90098ZM22.6719 2C26.5424 2 29.9096 4.16852 31.6191 7.36633L35.1467 5.48053C32.7692 1.03313 28.0763 -2 22.6719 -2V2ZM33.4706 8.42151C33.6106 8.41537 33.7515 8.41226 33.8933 8.41226V4.41226C33.693 4.41226 33.4936 4.41665 33.2953 4.42535L33.4706 8.42151ZM33.8933 8.41226C39.1127 8.41226 43.3438 12.6434 43.3438 17.8627H47.3438C47.3438 10.4342 41.3218 4.41226 33.8933 4.41226V8.41226ZM43.3438 17.8627C43.3438 22.8266 39.5153 26.8983 34.6515 27.2833L34.9671 31.2708C41.8945 30.7225 47.3438 24.93 47.3438 17.8627H43.3438ZM32.8093 29.277V29.3131H36.8093V29.277H32.8093ZM34.8093 27.3131H33.92V31.3131H34.8093V27.3131ZM33.9178 27.3131L33.891 27.3131L33.8956 31.3131L33.9223 31.3131L33.9178 27.3131ZM33.8956 27.3131L33.8689 27.3131L33.8643 31.3131L33.891 31.3131L33.8956 27.3131ZM33.8666 27.3131H10.5525V31.3131H33.8666V27.3131ZM10.5494 27.3131C10.5442 27.3131 10.5392 27.3131 10.5344 27.3131V31.3131C10.5417 31.3131 10.5488 31.3131 10.5557 31.3131L10.5494 27.3131ZM10.5344 27.3131C10.5296 27.3131 10.5247 27.3131 10.5194 27.3131L10.5131 31.3131C10.52 31.3131 10.5271 31.3131 10.5344 31.3131V27.3131ZM10.5163 27.3131H10.0763V31.3131H10.5163V27.3131ZM12.0763 29.3131V29.3033H8.07633V29.3131H12.0763Z" fill="white" mask="url(#path-1-inside-1)"/>
</svg>
