<svg width="64" height="50" viewBox="0 0 64 50" fill="none" xmlns="http://www.w3.org/2000/svg">
<path fill-rule="evenodd" clip-rule="evenodd" d="M39 0C39.5523 0 40 0.447715 40 1V11C40 11.5523 39.5523 12 39 12C38.4477 12 38 11.5523 38 11V1C38 0.447715 38.4477 0 39 0ZM44.3279 32.2543C46.5549 30.616 48 27.9767 48 25C48 20.0294 43.9706 16 39 16C35.8717 16 33.1162 17.5961 31.5033 20.0183C31.0987 19.4605 30.6477 18.9384 30.1561 18.4578C32.1601 15.7532 35.3753 14 39 14C45.0752 14 50 18.9249 50 25C50 29.1952 47.6516 32.8418 44.1976 34.697C44.2938 34.0998 44.3438 33.4871 44.3438 32.8627C44.3438 32.6586 44.3384 32.4558 44.3279 32.2543ZM38 43.1141C38.7121 42.7587 39.3819 42.3313 40 41.8414V49C40 49.5523 39.5523 50 39 50C38.4477 50 38 49.5523 38 49V43.1141ZM63 26C63.5523 26 64 25.5523 64 25C64 24.4477 63.5523 24 63 24H53C52.4477 24 52 24.4477 52 25C52 25.5523 52.4477 26 53 26L63 26ZM56.6777 7.32231C57.0682 7.71284 57.0682 8.346 56.6777 8.73653L49.6066 15.8076C49.2161 16.1981 48.5829 16.1981 48.1924 15.8076C47.8019 15.4171 47.8019 14.7839 48.1924 14.3934L55.2635 7.32231C55.654 6.93179 56.2872 6.93179 56.6777 7.32231ZM28.3935 15.8076C28.784 16.1981 29.4172 16.1981 29.8077 15.8076C30.1982 15.4171 30.1982 14.7839 29.8077 14.3934L22.7366 7.32232C22.3461 6.9318 21.713 6.9318 21.3224 7.32232C20.9319 7.71284 20.9319 8.34601 21.3224 8.73653L28.3935 15.8076ZM56.6777 42.6777C56.2872 43.0682 55.654 43.0682 55.2635 42.6777L48.1924 35.6066C47.8019 35.2161 47.8019 34.5829 48.1924 34.1924C48.583 33.8019 49.2161 33.8019 49.6066 34.1924L56.6777 41.2634C57.0682 41.654 57.0682 42.2871 56.6777 42.6777Z" fill="white"/>
<mask id="path-2-inside-1" fill="white">
<path fill-rule="evenodd" clip-rule="evenodd" d="M10.0763 44.3033C4.47085 44.0635 0 39.4432 0 33.7787C0 27.9607 4.71642 23.2443 10.5344 23.2443C10.7465 23.2443 10.957 23.2506 11.166 23.2629C12.7829 18.4595 17.3234 15 22.6719 15C27.3094 15 31.3394 17.6008 33.3829 21.4234C33.5521 21.416 33.7223 21.4123 33.8933 21.4123C40.2172 21.4123 45.3438 26.5388 45.3438 32.8627C45.3438 38.8783 40.7049 43.8104 34.8093 44.277V44.3131H33.92L33.8933 44.3131L33.8666 44.3131H10.5525C10.5465 44.3131 10.5405 44.3131 10.5344 44.3131C10.5284 44.3131 10.5223 44.3131 10.5163 44.3131H10.0763V44.3033Z"/>
</mask>
<path d="M10.0763 44.3033H12.0763V42.3871L10.1618 42.3052L10.0763 44.3033ZM11.166 23.2629L11.0479 25.2594L12.5738 25.3497L13.0615 23.901L11.166 23.2629ZM33.3829 21.4234L31.6191 22.3663L32.2127 23.4767L33.4706 23.4215L33.3829 21.4234ZM34.8093 44.277L34.6515 42.2833L32.8093 42.4291V44.277H34.8093ZM34.8093 44.3131V46.3131H36.8093V44.3131H34.8093ZM33.92 44.3131V42.3131L33.9178 42.3131L33.92 44.3131ZM33.8933 44.3131L33.891 46.3131L33.8956 46.3131L33.8933 44.3131ZM33.8666 44.3131L33.8689 42.3131H33.8666V44.3131ZM10.5525 44.3131V42.3131L10.5494 42.3131L10.5525 44.3131ZM10.5163 44.3131L10.5194 42.3131H10.5163V44.3131ZM10.0763 44.3131H8.07633V46.3131H10.0763V44.3131ZM10.1618 42.3052C5.62206 42.1109 2 38.3673 2 33.7787H-2C-2 40.5192 3.31964 46.0161 9.99083 46.3015L10.1618 42.3052ZM2 33.7787C2 29.0653 5.82098 25.2443 10.5344 25.2443V21.2443C3.61185 21.2443 -2 26.8562 -2 33.7787H2ZM10.5344 25.2443C10.707 25.2443 10.8782 25.2494 11.0479 25.2594L11.284 21.2664C11.0358 21.2517 10.7859 21.2443 10.5344 21.2443V25.2443ZM13.0615 23.901C14.4127 19.8867 18.2078 17 22.6719 17V13C16.439 13 11.153 17.0323 9.27048 22.6249L13.0615 23.901ZM22.6719 17C26.5424 17 29.9096 19.1685 31.6191 22.3663L35.1467 20.4805C32.7692 16.0331 28.0763 13 22.6719 13V17ZM33.4706 23.4215C33.6106 23.4154 33.7515 23.4123 33.8933 23.4123V19.4123C33.693 19.4123 33.4936 19.4167 33.2953 19.4254L33.4706 23.4215ZM33.8933 23.4123C39.1127 23.4123 43.3438 27.6434 43.3438 32.8627H47.3438C47.3438 25.4342 41.3218 19.4123 33.8933 19.4123V23.4123ZM43.3438 32.8627C43.3438 37.8266 39.5153 41.8983 34.6515 42.2833L34.9671 46.2708C41.8945 45.7225 47.3438 39.93 47.3438 32.8627H43.3438ZM32.8093 44.277V44.3131H36.8093V44.277H32.8093ZM34.8093 42.3131H33.92V46.3131H34.8093V42.3131ZM33.9178 42.3131L33.891 42.3131L33.8956 46.3131L33.9223 46.3131L33.9178 42.3131ZM33.8956 42.3131L33.8689 42.3131L33.8643 46.3131L33.891 46.3131L33.8956 42.3131ZM33.8666 42.3131H10.5525V46.3131H33.8666V42.3131ZM10.5494 42.3131C10.5442 42.3131 10.5392 42.3131 10.5344 42.3131V46.3131C10.5417 46.3131 10.5488 46.3131 10.5557 46.3131L10.5494 42.3131ZM10.5344 42.3131C10.5296 42.3131 10.5247 42.3131 10.5194 42.3131L10.5131 46.3131C10.52 46.3131 10.5271 46.3131 10.5344 46.3131V42.3131ZM10.5163 42.3131H10.0763V46.3131H10.5163V42.3131ZM12.0763 44.3131V44.3033H8.07633V44.3131H12.0763Z" fill="white" mask="url(#path-2-inside-1)"/>
</svg>
