<svg width="47" height="39" viewBox="0 0 47 39" fill="none" xmlns="http://www.w3.org/2000/svg">
<path fill-rule="evenodd" clip-rule="evenodd" d="M11.3258 29.3131L11.119 29.3042C6.04644 29.0872 2 24.9052 2 19.7787C2 14.513 6.2687 10.2443 11.5344 10.2443C11.7267 10.2443 11.9176 10.2499 12.107 10.2611C12.5574 10.2878 12.9698 10.0095 13.1137 9.58191C14.5978 5.1731 18.7656 2 23.6719 2C27.9259 2 31.6245 4.38466 33.501 7.89486C33.6824 8.23416 34.0424 8.43931 34.4267 8.42244C34.5813 8.41566 34.7369 8.41223 34.8933 8.41223C40.6649 8.41223 45.3438 13.0911 45.3438 18.8627C45.3438 24.3524 41.1101 28.8544 35.7304 29.2801L35.3144 29.3131C35.1407 29.3131 35 29.4538 35 29.6274V29.9084C35 30.1319 35.1812 30.3131 35.4046 30.3131H35.7905C35.8009 30.3131 35.8093 30.3047 35.8093 30.2943C35.8093 30.2846 35.8168 30.2764 35.8266 30.2756C41.714 29.8007 46.3438 24.8724 46.3438 18.8627C46.3438 12.5388 41.2172 7.41223 34.8933 7.41223C34.5813 7.41223 34.2913 7.24701 34.1327 6.97826C32.0215 3.40032 28.127 1 23.6719 1C18.5464 1 14.1629 4.17706 12.3833 8.66931C12.2459 9.01615 11.9075 9.24426 11.5344 9.24426C5.71642 9.24426 1 13.9607 1 19.7787C1 25.4416 5.46829 30.0608 11.0715 30.3031C11.0742 30.3032 11.0763 30.3054 11.0763 30.3081C11.0763 30.3108 11.0785 30.3131 11.0813 30.3131H11.5132L11.5344 30.3131L11.5557 30.3131C11.8011 30.3131 12 30.1141 12 29.8687V29.7574C12 29.512 11.8011 29.3131 11.5557 29.3131L11.5538 29.3131L11.5344 29.3131L11.515 29.3131H11.5132H11.3258Z" fill="white"/>
<path d="M11.119 29.3042L11.1447 28.7048H11.1447L11.119 29.3042ZM11.3258 29.3131L11.3002 29.9125L11.313 29.9131H11.3258V29.3131ZM35.7304 29.2801L35.683 28.682L35.7304 29.2801ZM11.5132 30.3131L11.5137 29.7131H11.5132V30.3131ZM11.5344 30.3131L11.5338 30.9131H11.535L11.5344 30.3131ZM11.5538 29.3131L11.5544 29.9131L11.555 29.9131L11.5538 29.3131ZM11.5344 29.3131L11.5338 29.9131H11.535L11.5344 29.3131ZM11.515 29.3131L11.5157 28.7131H11.515V29.3131ZM12.3833 8.66931L12.9411 8.89029L12.3833 8.66931ZM34.1327 6.97826L33.616 7.28317L34.1327 6.97826ZM35.8266 30.2756L35.7783 29.6776L35.8266 30.2756ZM11.0715 30.3031L11.0456 30.9025L11.0715 30.3031ZM11.0934 29.9037L11.3002 29.9125L11.3515 28.7136L11.1447 28.7048L11.0934 29.9037ZM1.4 19.7787C1.4 25.2279 5.70104 29.6729 11.0934 29.9037L11.1447 28.7048C6.39185 28.5014 2.6 24.5825 2.6 19.7787H1.4ZM11.5344 9.64426C5.93733 9.64426 1.4 14.1816 1.4 19.7787H2.6C2.6 14.8443 6.60007 10.8443 11.5344 10.8443V9.64426ZM12.1424 9.66219C11.9413 9.6503 11.7386 9.64426 11.5344 9.64426V10.8443C11.7149 10.8443 11.894 10.8496 12.0715 10.8601L12.1424 9.66219ZM23.6719 1.4C18.5004 1.4 14.1089 4.74482 12.5451 9.3905L13.6824 9.77333C15.0867 5.60138 19.0308 2.6 23.6719 2.6V1.4ZM34.0301 7.61199C32.0534 3.91427 28.1559 1.4 23.6719 1.4V2.6C27.6959 2.6 31.1956 4.85506 32.9719 8.17773L34.0301 7.61199ZM34.8933 7.81223C34.7281 7.81223 34.5638 7.81585 34.4004 7.82302L34.453 9.02187C34.5989 9.01547 34.7457 9.01223 34.8933 9.01223V7.81223ZM45.9438 18.8627C45.9438 12.7597 40.9963 7.81223 34.8933 7.81223V9.01223C40.3336 9.01223 44.7438 13.4224 44.7438 18.8627H45.9438ZM35.7777 29.8783C41.467 29.428 45.9438 24.6679 45.9438 18.8627H44.7438C44.7438 24.037 40.7531 28.2807 35.683 28.682L35.7777 29.8783ZM35.3617 29.9112L35.7777 29.8783L35.683 28.682L35.267 28.7149L35.3617 29.9112ZM34.4 29.6274V29.9084H35.6V29.6274H34.4ZM35.7905 29.7131H35.4046V30.9131H35.7905V29.7131ZM45.7438 18.8627C45.7438 24.5572 41.3566 29.2276 35.7783 29.6776L35.8748 30.8737C42.0714 30.3739 46.9438 25.1876 46.9438 18.8627H45.7438ZM34.8933 8.01223C40.8858 8.01223 45.7438 12.8701 45.7438 18.8627H46.9438C46.9438 12.2074 41.5486 6.81223 34.8933 6.81223V8.01223ZM23.6719 1.6C27.9061 1.6 31.6082 3.88053 33.616 7.28317L34.6495 6.67335C32.4348 2.9201 28.348 0.4 23.6719 0.4V1.6ZM12.9411 8.89029C14.6331 4.61905 18.8007 1.6 23.6719 1.6V0.4C18.292 0.4 13.6926 3.73508 11.8255 8.44833L12.9411 8.89029ZM1.6 19.7787C1.6 14.292 6.04779 9.84426 11.5344 9.84426V8.64426C5.38504 8.64426 0.4 13.6293 0.4 19.7787H1.6ZM11.0974 29.7037C5.8138 29.4752 1.6 25.1189 1.6 19.7787H0.4C0.4 25.7642 5.12278 30.6464 11.0456 30.9025L11.0974 29.7037ZM11.5132 29.7131H11.0813V30.9131H11.5132V29.7131ZM11.535 29.7131L11.5137 29.7131L11.5126 30.9131L11.5338 30.9131L11.535 29.7131ZM11.5551 29.7131L11.5338 29.7131L11.535 30.9131L11.5563 30.9131L11.5551 29.7131ZM12.6 29.8687V29.7574H11.4V29.8687H12.6ZM11.555 29.9131L11.5569 29.9131L11.5544 28.7131L11.5526 28.7131L11.555 29.9131ZM11.535 29.9131L11.5544 29.9131L11.5532 28.7131L11.5338 28.7131L11.535 29.9131ZM11.5144 29.9131L11.5338 29.9131L11.5351 28.7131L11.5157 28.7131L11.5144 29.9131ZM11.5132 29.9131H11.515V28.7131H11.5132V29.9131ZM11.3258 29.9131H11.5132V28.7131H11.3258V29.9131ZM11.8255 8.44833C11.7795 8.56449 11.6635 8.64426 11.5344 8.64426V9.84426C12.1515 9.84426 12.7123 9.46781 12.9411 8.89029L11.8255 8.44833ZM34.8933 6.81223C34.7931 6.81223 34.6999 6.75882 34.6495 6.67335L33.616 7.28317C33.8827 7.7352 34.3694 8.01223 34.8933 8.01223V6.81223ZM36.4093 30.2943C36.4093 30.601 36.173 30.8496 35.8748 30.8737L35.7783 29.6776C35.4607 29.7032 35.2093 29.9681 35.2093 30.2943H36.4093ZM35.7905 30.9131C36.1322 30.9131 36.4093 30.636 36.4093 30.2943H35.2093C35.2093 29.9733 35.4695 29.7131 35.7905 29.7131V30.9131ZM10.4763 30.3081C10.4763 30.6422 10.7472 30.9131 11.0813 30.9131V29.7131C11.4099 29.7131 11.6763 29.9795 11.6763 30.3081H10.4763ZM12.0715 10.8601C12.7922 10.9027 13.4521 10.4575 13.6824 9.77333L12.5451 9.3905C12.4875 9.56154 12.3225 9.67284 12.1424 9.66219L12.0715 10.8601ZM34.4 29.9084C34.4 30.4633 34.8498 30.9131 35.4046 30.9131V29.7131C35.5125 29.7131 35.6 29.8005 35.6 29.9084H34.4ZM11.5557 30.9131C12.1324 30.9131 12.6 30.4455 12.6 29.8687H11.4C11.4 29.7828 11.4697 29.7131 11.5557 29.7131V30.9131ZM12.6 29.7574C12.6 29.1806 12.1324 28.7131 11.5557 28.7131V29.9131C11.4697 29.9131 11.4 29.8434 11.4 29.7574H12.6ZM32.9719 8.17773C33.2621 8.72061 33.838 9.04885 34.453 9.02187L34.4004 7.82302C34.2467 7.82977 34.1027 7.74771 34.0301 7.61198L32.9719 8.17773ZM11.0456 30.9025C10.7312 30.8889 10.4763 30.6306 10.4763 30.3081H11.6763C11.6763 29.9802 11.4171 29.7175 11.0974 29.7037L11.0456 30.9025ZM35.3144 28.7131C34.8094 28.7131 34.4 29.1224 34.4 29.6274H35.6C35.6 29.7852 35.4721 29.9131 35.3144 29.9131L35.3144 28.7131Z" fill="white"/>
<path d="M22 23L27.8534 29.6338C27.9104 29.6984 27.8645 29.8 27.7784 29.8H20.2047C20.1214 29.8 20.0746 29.8958 20.1258 29.9615L26 37.5" stroke="white" stroke-width="2.5"/>
</svg>
