<svg width="50" height="50" viewBox="0 0 50 50" fill="none" xmlns="http://www.w3.org/2000/svg">
<circle cx="25" cy="25" r="10" stroke="white" stroke-width="2"/>
<rect x="26" y="38" width="12" height="2" rx="1" transform="rotate(90 26 38)" fill="white"/>
<rect x="26" y="38" width="12" height="2" rx="1" transform="rotate(90 26 38)" fill="white"/>
<rect x="26" width="12" height="2" rx="1" transform="rotate(90 26 0)" fill="white"/>
<rect x="12" y="26" width="12" height="2" rx="1" transform="rotate(-180 12 26)" fill="white"/>
<rect x="50" y="26" width="12" height="2" rx="1" transform="rotate(-180 50 26)" fill="white"/>
<rect x="16.5146" y="34.8994" width="12" height="2" rx="1" transform="rotate(135 16.5146 34.8994)" fill="white"/>
<rect x="43.3848" y="8.0293" width="12" height="2" rx="1" transform="rotate(135 43.3848 8.0293)" fill="white"/>
<rect x="15.1006" y="16.5146" width="12" height="2" rx="1" transform="rotate(-135 15.1006 16.5146)" fill="white"/>
<rect x="41.9706" y="43.3848" width="12" height="2" rx="1" transform="rotate(-135 41.9706 43.3848)" fill="white"/>
</svg>
