<svg width="63" height="38" viewBox="0 0 63 38" fill="none" xmlns="http://www.w3.org/2000/svg">
<path d="M26.0763 36.3033H27.0763V35.3452L26.1191 35.3043L26.0763 36.3033ZM27.166 15.2629L27.1069 16.2612L27.8699 16.3063L28.1137 15.582L27.166 15.2629ZM49.3829 13.4234L48.501 13.8949L48.7978 14.4501L49.4267 14.4225L49.3829 13.4234ZM50.8093 36.277L50.7304 35.2802L49.8093 35.3531V36.277H50.8093ZM50.8093 36.3131V37.3131H51.8093V36.3131H50.8093ZM49.92 36.3131V35.3131H49.9189L49.92 36.3131ZM49.8933 36.3131L49.8922 37.3131L49.8945 37.3131L49.8933 36.3131ZM49.8666 36.3131L49.8677 35.3131H49.8666V36.3131ZM26.5525 36.3131V35.3131L26.551 35.3131L26.5525 36.3131ZM26.5163 36.3131L26.5179 35.3131H26.5163V36.3131ZM26.0763 36.3131H25.0763V37.3131H26.0763V36.3131ZM26.1191 35.3043C21.0465 35.0872 17 30.9053 17 25.7787H15C15 31.9812 19.8952 37.0398 26.0336 37.3024L26.1191 35.3043ZM17 25.7787C17 20.513 21.2687 16.2443 26.5344 16.2443V14.2443C20.1641 14.2443 15 19.4084 15 25.7787H17ZM26.5344 16.2443C26.7267 16.2443 26.9176 16.25 27.1069 16.2612L27.225 14.2647C26.9964 14.2512 26.7662 14.2443 26.5344 14.2443V16.2443ZM28.1137 15.582C29.5978 11.1731 33.7656 8 38.6719 8V6C32.8812 6 27.9679 9.7459 26.2182 14.9439L28.1137 15.582ZM38.6719 8C42.9259 8 46.6245 10.3847 48.501 13.8949L50.2648 12.952C48.0543 8.81698 43.6928 6 38.6719 6V8ZM49.4267 14.4225C49.5814 14.4157 49.7369 14.4123 49.8933 14.4123V12.4123C49.7077 12.4123 49.5229 12.4163 49.3391 12.4244L49.4267 14.4225ZM49.8933 14.4123C55.6649 14.4123 60.3438 19.0911 60.3438 24.8627H62.3438C62.3438 17.9865 56.7695 12.4123 49.8933 12.4123V14.4123ZM60.3438 24.8627C60.3438 30.3524 56.1101 34.8544 50.7304 35.2802L50.8882 37.2739C57.2997 36.7665 62.3438 31.4041 62.3438 24.8627H60.3438ZM49.8093 36.277V36.3131H51.8093V36.277H49.8093ZM50.8093 35.3131H49.92V37.3131H50.8093V35.3131ZM49.9189 35.3131L49.8922 35.3131L49.8945 37.3131L49.9212 37.3131L49.9189 35.3131ZM49.8945 35.3131L49.8677 35.3131L49.8655 37.3131L49.8922 37.3131L49.8945 35.3131ZM49.8666 35.3131H26.5525V37.3131H49.8666V35.3131ZM26.551 35.3131C26.5453 35.3131 26.5398 35.3131 26.5344 35.3131V37.3131C26.5411 37.3131 26.5477 37.3131 26.5541 37.3131L26.551 35.3131ZM26.5344 35.3131C26.529 35.3131 26.5235 35.3131 26.5179 35.3131L26.5147 37.3131C26.5212 37.3131 26.5277 37.3131 26.5344 37.3131V35.3131ZM26.5163 35.3131H26.0763V37.3131H26.5163V35.3131ZM27.0763 36.3131V36.3033H25.0763V36.3131H27.0763Z" fill="white"/>
<path d="M11.0763 30.3033H12.0763V29.3452L11.1191 29.3043L11.0763 30.3033ZM11.0763 30.3131H10.0763V31.3131H11.0763V30.3131ZM11.5163 30.3131L11.5171 29.3131H11.5163V30.3131ZM11.5344 30.3131L11.5336 31.3131L11.5353 31.3131L11.5344 30.3131ZM11.5525 30.3131V29.3131H11.5517L11.5525 30.3131ZM17.0231 30.3131V31.3131H18.6089L17.9255 29.8821L17.0231 30.3131ZM27.166 15.2629L27.1069 16.2612L27.8699 16.3063L28.1137 15.582L27.166 15.2629ZM35.4708 7.42657L35.7339 8.39134L35.5204 6.4278L35.4708 7.42657ZM34.3829 7.42343L33.501 7.89488L33.7978 8.45006L34.4267 8.42247L34.3829 7.42343ZM12.166 9.26294L12.1069 10.2612L12.8699 10.3063L13.1137 9.58196L12.166 9.26294ZM11.1191 29.3043C6.04646 29.0872 2 24.9053 2 19.7787H0C0 25.9812 4.89525 31.0398 11.0336 31.3024L11.1191 29.3043ZM12.0763 30.3131V30.3033H10.0763V30.3131H12.0763ZM11.5163 29.3131H11.0763V31.3131H11.5163V29.3131ZM11.5353 29.3131L11.5171 29.3131L11.5154 31.3131L11.5336 31.3131L11.5353 29.3131ZM11.5517 29.3131L11.5336 29.3131L11.5353 31.3131L11.5534 31.3131L11.5517 29.3131ZM17.0231 29.3131H11.5525V31.3131H17.0231V29.3131ZM17.9255 29.8821C17.3325 28.6405 17 27.2498 17 25.7787H15C15 27.5544 15.4019 29.239 16.1207 30.7441L17.9255 29.8821ZM17 25.7787C17 20.513 21.2687 16.2443 26.5344 16.2443V14.2443C20.1641 14.2443 15 19.4084 15 25.7787H17ZM26.5344 16.2443C26.7267 16.2443 26.9176 16.25 27.1069 16.2612L27.225 14.2647C26.9964 14.2512 26.7662 14.2443 26.5344 14.2443V16.2443ZM28.1137 15.582C29.2899 12.0879 32.154 9.36761 35.7339 8.39134L35.2077 6.4618C30.9813 7.61436 27.606 10.8213 26.2182 14.9439L28.1137 15.582ZM34.8933 8.41226C35.0704 8.41226 35.2464 8.41665 35.4212 8.42534L35.5204 6.4278C35.3126 6.41748 35.1035 6.41226 34.8933 6.41226V8.41226ZM34.4267 8.42247C34.5814 8.41569 34.7369 8.41226 34.8933 8.41226V6.41226C34.7077 6.41226 34.5229 6.41633 34.3391 6.42439L34.4267 8.42247ZM23.6719 2C27.9259 2 31.6245 4.38467 33.501 7.89488L35.2648 6.95198C33.0543 2.81698 28.6928 0 23.6719 0V2ZM13.1137 9.58196C14.5978 5.17312 18.7656 2 23.6719 2V0C17.8812 0 12.9679 3.7459 11.2182 8.94391L13.1137 9.58196ZM11.5344 10.2443C11.7267 10.2443 11.9176 10.25 12.1069 10.2612L12.225 8.26468C11.9964 8.25116 11.7662 8.24431 11.5344 8.24431V10.2443ZM2 19.7787C2 14.513 6.2687 10.2443 11.5344 10.2443V8.24431C5.16413 8.24431 0 13.4084 0 19.7787H2Z" fill="white"/>
</svg>
